<svg width="30" height="31" viewBox="0 0 30 31" fill="none" xmlns="http://www.w3.org/2000/svg">
<g clip-path="url(#clip0)">
<path d="M19.5667 15.9317L29.3309 22.2627V9.33325L19.5667 15.9317Z" fill="url(#paint0_linear)"/>
<path d="M0.367676 9.33325V22.2627L10.1319 15.9317L0.367676 9.33325Z" fill="url(#paint1_linear)"/>
<path d="M27.5206 5.56812H2.17777C1.27448 5.56812 0.55764 6.25878 0.421875 7.1481L14.8492 16.8972L29.2765 7.1481C29.1407 6.25878 28.4239 5.56812 27.5206 5.56812Z" fill="url(#paint2_linear)"/>
<path d="M17.9085 17.0529L15.347 18.7832C15.195 18.8854 15.023 18.9355 14.8492 18.9355C14.6754 18.9355 14.5035 18.8854 14.3514 18.7832L11.79 17.051L0.425537 24.4237C0.564923 25.3055 1.27814 25.9906 2.17781 25.9906H27.5206C28.4203 25.9906 29.1335 25.3055 29.2729 24.4237L17.9085 17.0529Z" fill="url(#paint3_linear)"/>
</g>
<defs>
<linearGradient id="paint0_linear" x1="28.7531" y1="19.9539" x2="18.4215" y2="19.2417" gradientUnits="userSpaceOnUse">
<stop stop-color="#7926FF"/>
<stop offset="1" stop-color="#5345F5"/>
</linearGradient>
<linearGradient id="paint1_linear" x1="9.55414" y1="19.9539" x2="-0.777516" y2="19.2417" gradientUnits="userSpaceOnUse">
<stop stop-color="#7926FF"/>
<stop offset="1" stop-color="#5345F5"/>
</linearGradient>
<linearGradient id="paint2_linear" x1="27.5691" y1="14.8741" x2="-1.53457" y2="8.10846" gradientUnits="userSpaceOnUse">
<stop stop-color="#7926FF"/>
<stop offset="1" stop-color="#5345F5"/>
</linearGradient>
<linearGradient id="paint3_linear" x1="27.566" y1="24.3943" x2="-0.654736" y2="16.0824" gradientUnits="userSpaceOnUse">
<stop stop-color="#7926FF"/>
<stop offset="1" stop-color="#5345F5"/>
</linearGradient>
<clipPath id="clip0">
<rect width="28.9632" height="29.7059" fill="white" transform="translate(0.367676 0.926514)"/>
</clipPath>
</defs>
</svg>
