<svg width="10" height="10" viewBox="0 0 10 10" fill="none" xmlns="http://www.w3.org/2000/svg">
<path d="M5.21609 0.148926C2.65496 0.148926 0.580567 2.22332 0.580567 4.78445C0.580041 5.75758 0.885962 6.70616 1.45493 7.49562C2.02389 8.28508 2.82701 8.87533 3.75034 9.18264C3.98212 9.22297 4.0688 9.0839 4.0688 8.96198C4.0688 8.85212 4.06277 8.48731 4.06277 8.09885C2.89833 8.31347 2.59702 7.81516 2.50431 7.55418C2.45193 7.42067 2.22618 7.0095 2.02917 6.89918C1.86693 6.81249 1.63515 6.59787 2.02314 6.5923C2.38842 6.58628 2.64894 6.92838 2.73609 7.06745C3.15328 7.76834 3.81987 7.57133 4.08595 7.44988C4.12674 7.14857 4.24819 6.946 4.3817 6.83011C3.35029 6.71422 2.27253 6.31417 2.27253 4.54109C2.27253 4.03674 2.45193 3.62001 2.74767 3.29506C2.70132 3.17917 2.53908 2.70403 2.79403 2.06664C2.79403 2.06664 3.18202 1.94519 4.0688 2.54225C4.44616 2.43751 4.83606 2.3848 5.22768 2.38557C5.6217 2.38557 6.01572 2.43748 6.38656 2.54178C7.27287 1.93917 7.66133 2.06711 7.66133 2.06711C7.91629 2.70449 7.75404 3.17963 7.70769 3.29552C8.00297 3.62001 8.18283 4.03118 8.18283 4.54109C8.18283 6.3202 7.09951 6.71422 6.0681 6.83011C6.23591 6.97474 6.381 7.25287 6.381 7.68768C6.381 8.30745 6.37497 8.80577 6.37497 8.96245C6.37497 9.0839 6.46212 9.22853 6.6939 9.18217C7.61406 8.8715 8.41364 8.2801 8.98009 7.4912C9.54655 6.70231 9.85135 5.75565 9.85162 4.78445C9.85162 2.22332 7.77722 0.148926 5.21609 0.148926Z" fill="black"/>
</svg>
