<svg width="34" height="33" viewBox="0 0 34 33" fill="none" xmlns="http://www.w3.org/2000/svg">
<path d="M16.6598 0.619629C7.58826 0.619629 0.240725 7.96716 0.240725 17.0387C0.238863 20.4855 1.32244 23.8454 3.33772 26.6417C5.35299 29.438 8.19764 31.5286 11.4681 32.6171C12.289 32.76 12.5961 32.2674 12.5961 31.8356C12.5961 31.4464 12.5747 30.1542 12.5747 28.7783C8.45026 29.5385 7.38302 27.7735 7.05464 26.8491C6.8691 26.3762 6.06949 24.9198 5.37168 24.5291C4.79702 24.222 3.97606 23.4618 5.35034 23.4421C6.64416 23.4208 7.56691 24.6325 7.87559 25.1251C9.35331 27.6076 11.7144 26.9098 12.6568 26.4797C12.8013 25.4124 13.2315 24.6949 13.7044 24.2844C10.0511 23.874 6.23368 22.457 6.23368 16.1767C6.23368 14.3903 6.8691 12.9142 7.91664 11.7632C7.75245 11.3528 7.17778 9.66982 8.08083 7.4122C8.08083 7.4122 9.4551 6.98202 12.5961 9.09679C13.9327 8.72582 15.3137 8.53911 16.7008 8.54183C18.0965 8.54183 19.4921 8.72572 20.8056 9.09515C23.9449 6.96067 25.3209 7.41384 25.3209 7.41384C26.2239 9.67146 25.6492 11.3544 25.485 11.7649C26.5309 12.9142 27.168 14.3706 27.168 16.1767C27.168 22.4783 23.3309 23.874 19.6776 24.2844C20.272 24.7967 20.7859 25.7818 20.7859 27.322C20.7859 29.5172 20.7646 31.2822 20.7646 31.8372C20.7646 32.2674 21.0732 32.7797 21.8942 32.6155C25.1534 31.5151 27.9855 29.4203 29.9919 26.626C31.9983 23.8318 33.0779 20.4787 33.0789 17.0387C33.0789 7.96716 25.7313 0.619629 16.6598 0.619629Z" fill="url(#paint0_linear)"/>
<defs>
<linearGradient id="paint0_linear" x1="31.1358" y1="26.9277" x2="-3.47266" y2="23.6889" gradientUnits="userSpaceOnUse">
<stop stop-color="#7926FF"/>
<stop offset="1" stop-color="#5345F5"/>
</linearGradient>
</defs>
</svg>
