<svg width="28" height="26" viewBox="0 0 28 26" fill="none" xmlns="http://www.w3.org/2000/svg">
<path d="M6.06058 3.61664C6.06021 4.35525 5.76644 5.06346 5.24391 5.58547C4.72137 6.10749 4.01287 6.40055 3.27426 6.40018C2.53565 6.39981 1.82744 6.10604 1.30542 5.5835C0.78341 5.06097 0.490354 4.35247 0.490723 3.61386C0.491092 2.87525 0.784857 2.16704 1.30739 1.64502C1.82993 1.12301 2.53843 0.829953 3.27704 0.830323C4.01565 0.830692 4.72386 1.12446 5.24587 1.64699C5.76789 2.16953 6.06095 2.87803 6.06058 3.61664ZM6.14412 8.46241H0.574271V25.8961H6.14412V8.46241ZM14.9445 8.46241H9.40249V25.8961H14.8888V16.7476C14.8888 11.6512 21.5308 11.1777 21.5308 16.7476V25.8961H27.0311V14.8538C27.0311 6.26232 17.2003 6.58259 14.8888 10.8018L14.9445 8.46241Z" fill="url(#paint0_linear)"/>
<defs>
<linearGradient id="paint0_linear" x1="25.4606" y1="21.42" x2="-2.49438" y2="18.7184" gradientUnits="userSpaceOnUse">
<stop stop-color="#7926FF"/>
<stop offset="1" stop-color="#5345F5"/>
</linearGradient>
</defs>
</svg>
