<svg width="9" height="9" viewBox="0 0 9 9" fill="none" xmlns="http://www.w3.org/2000/svg">
<path fill-rule="evenodd" clip-rule="evenodd" d="M4.20568 3.7391C4.75001 3.70768 5.24902 4.04147 5.42781 4.55656L5.46321 4.65854C5.52005 4.82229 5.43337 5.00112 5.26961 5.05796C5.10585 5.1148 4.92702 5.02813 4.87018 4.86437L4.83479 4.76239C4.74805 4.51249 4.50593 4.35054 4.24184 4.36578C3.99543 4.38 3.76203 4.48103 3.58302 4.65096L2.76712 5.42548C2.34066 5.83031 2.33185 6.5071 2.74764 6.92289C3.14885 7.3241 3.79685 7.33202 4.20776 6.94075L4.48653 6.6753C4.61206 6.55577 4.81073 6.56063 4.93027 6.68617C5.0498 6.8117 5.04494 7.01037 4.91941 7.1299L4.64064 7.39535C3.983 8.02157 2.94589 8.00888 2.30377 7.36676C1.63832 6.7013 1.65241 5.61813 2.33495 4.97021L3.15085 4.19569C3.43745 3.92362 3.81116 3.76186 4.20568 3.7391Z" fill="black" fill-opacity="0.43"/>
<path fill-rule="evenodd" clip-rule="evenodd" d="M4.4128 5.17179C4.51741 5.48985 4.79996 5.68279 5.06708 5.65127C5.21463 5.63387 5.29247 5.60435 5.44201 5.52663C5.63098 5.42842 5.80495 5.29754 5.96004 5.14245L6.6504 4.45208C7.06316 4.03933 7.06316 3.37013 6.6504 2.95737C6.24195 2.54892 5.58123 2.54405 5.16679 2.94644L4.82117 3.28202C4.69681 3.40277 4.4981 3.39984 4.37735 3.27547C4.2566 3.15111 4.25953 2.9524 4.38389 2.83165L4.72951 2.49607C5.39009 1.85469 6.44323 1.86245 7.09428 2.5135C7.75217 3.1714 7.75217 4.23806 7.09428 4.89595L6.40391 5.58632C6.20805 5.78218 5.98291 5.95295 5.7315 6.08362C5.53889 6.18373 5.38669 6.24565 5.14062 6.27468C4.51407 6.34859 3.99305 5.90468 3.8165 5.36792C3.76234 5.20326 3.85192 5.02587 4.01658 4.97171C4.18124 4.91755 4.35863 5.00713 4.4128 5.17179Z" fill="black" fill-opacity="0.43"/>
</svg>
