<svg width="30" height="25" viewBox="0 0 30 25" fill="none" xmlns="http://www.w3.org/2000/svg">
<path fill-rule="evenodd" clip-rule="evenodd" d="M2.15557 10.8001C10.0273 7.37047 15.2764 5.10947 17.9028 4.01706C25.4017 0.898026 26.9598 0.356216 27.9755 0.338326C28.1988 0.334391 28.6983 0.389749 29.0218 0.652265C29.295 0.873928 29.3701 1.17336 29.4061 1.38352C29.4421 1.59369 29.4869 2.07244 29.4513 2.44652C29.0449 6.71625 27.2866 17.0777 26.392 21.8599C26.0135 23.8834 25.2682 24.5619 24.5466 24.6283C22.9786 24.7726 21.7878 23.592 20.2691 22.5964C17.8925 21.0386 16.5499 20.0688 14.243 18.5486C11.577 16.7917 13.3053 15.8261 14.8246 14.2481C15.2222 13.8351 22.1313 7.55084 22.265 6.98075C22.2817 6.90946 22.2972 6.64369 22.1393 6.50335C21.9814 6.36302 21.7484 6.41101 21.5803 6.44917C21.3419 6.50327 17.5453 9.01268 10.1905 13.9774C9.11282 14.7174 8.13672 15.0779 7.26217 15.0591C6.29804 15.0382 4.44345 14.5139 3.06475 14.0658C1.37372 13.5161 0.0297206 13.2255 0.146753 12.2919C0.20771 11.8057 0.877314 11.3084 2.15557 10.8001Z" fill="url(#paint0_linear)"/>
<defs>
<linearGradient id="paint0_linear" x1="27.7291" y1="20.3007" x2="-3.07346" y2="16.9082" gradientUnits="userSpaceOnUse">
<stop stop-color="#7926FF"/>
<stop offset="1" stop-color="#5345F5"/>
</linearGradient>
</defs>
</svg>
